<?xml version="1.0" standalone="no"?>
<!DOCTYPE svg PUBLIC "-//W3C//DTD SVG 20010904//EN"
 "http://www.w3.org/TR/2001/REC-SVG-20010904/DTD/svg10.dtd">
<svg version="1.0" xmlns="http://www.w3.org/2000/svg"
 width="2048.000000pt" height="2048.000000pt" viewBox="0 0 2048.000000 2048.000000"
 preserveAspectRatio="xMidYMid meet">
<metadata>
Created by potrace 1.14, written by Peter Selinger 2001-2017
</metadata>
<g transform="translate(0.000000,2048.000000) scale(0.100000,-0.100000)"
fill="#000000" stroke="none">
<path d="M6819 14946 c-2 -2 -56 -7 -119 -10 -63 -4 -128 -8 -145 -10 -16 -2
-57 -7 -90 -11 -66 -7 -116 -14 -149 -21 -11 -2 -32 -6 -46 -9 -14 -3 -36 -7
-50 -10 -14 -3 -41 -8 -60 -12 -45 -9 -38 -7 -90 -22 -25 -7 -49 -14 -55 -15
-5 -1 -37 -10 -70 -20 -33 -10 -64 -19 -70 -20 -18 -4 -59 -18 -90 -31 -16 -7
-46 -18 -65 -25 -79 -28 -266 -119 -312 -152 -16 -10 -28 -16 -28 -13 0 4 -16
-6 -35 -21 -18 -16 -44 -37 -57 -47 -61 -46 -94 -75 -127 -111 -20 -21 -49
-53 -65 -70 -45 -48 -144 -202 -183 -286 -37 -78 -96 -250 -88 -258 2 -3 0
-12 -4 -21 -8 -15 -14 -45 -27 -141 -8 -51 -8 -2489 0 -2530 27 -158 37 -202
55 -244 6 -16 13 -36 14 -45 2 -9 13 -36 25 -60 12 -25 22 -51 22 -58 0 -7 3
-13 8 -13 4 0 13 -15 21 -32 55 -127 250 -330 411 -428 78 -47 160 -90 160
-83 0 3 7 -1 16 -8 9 -7 22 -14 29 -15 7 -1 51 -16 96 -32 156 -57 472 -145
561 -156 13 -2 34 -6 48 -9 23 -6 41 -9 120 -22 45 -7 177 -22 265 -30 233
-22 965 -25 965 -4 0 3 6 6 13 6 29 0 150 16 222 28 17 3 50 8 75 11 24 3 47
7 51 10 4 2 24 6 44 10 60 9 65 10 226 52 155 41 330 98 447 145 34 14 62 23
62 19 0 -4 4 -2 8 3 4 6 21 17 37 24 241 116 486 357 584 573 24 54 43 99 46
111 2 4 3 8 5 10 1 1 3 9 5 17 2 8 11 40 19 70 19 71 26 102 33 170 10 77 8
2493 -1 2560 -4 30 -14 84 -23 120 -8 36 -16 72 -17 80 -1 9 -5 20 -8 25 -3 6
-11 28 -18 50 -22 71 -109 236 -162 309 -57 77 -167 191 -238 246 -25 19 -51
40 -58 47 -7 7 -20 13 -28 13 -8 0 -14 3 -14 8 0 4 -10 12 -23 18 -12 7 -65
34 -117 61 -52 27 -142 68 -200 90 -145 57 -143 56 -157 54 -7 -1 -13 3 -13 9
0 6 -4 9 -9 5 -5 -3 -20 -1 -33 4 -30 12 -126 39 -158 45 -14 2 -45 9 -70 15
-25 5 -57 12 -73 15 -15 2 -35 7 -45 10 -16 5 -59 11 -152 22 -25 2 -56 7 -70
10 -14 3 -50 7 -80 9 -30 2 -84 7 -120 11 -67 6 -775 15 -781 10z m661 -850
c25 -4 59 -9 75 -11 17 -2 42 -6 58 -9 43 -9 75 -16 105 -21 61 -12 232 -69
299 -100 88 -41 183 -132 231 -222 18 -34 32 -64 32 -65 -1 -2 1 -10 4 -18 3
-8 9 -31 14 -51 6 -21 10 -527 10 -1229 0 -1146 -1 -1196 -19 -1263 -30 -105
-103 -209 -184 -262 -64 -42 -147 -78 -205 -90 -8 -2 -33 -8 -55 -13 -22 -6
-51 -13 -65 -16 -14 -3 -36 -7 -49 -10 -13 -3 -49 -8 -80 -12 -31 -3 -65 -8
-76 -11 -78 -16 -571 -22 -745 -8 -145 11 -162 13 -186 18 -12 3 -39 8 -60 11
-22 4 -46 8 -54 11 -8 2 -28 6 -43 9 -15 3 -54 13 -85 22 -31 10 -59 18 -62
19 -3 1 -20 5 -37 9 -18 4 -33 12 -33 17 0 5 -7 9 -16 9 -16 0 -144 88 -144
99 0 3 -12 20 -28 36 -25 28 -53 78 -80 147 -11 25 -21 102 -26 188 -1 19 2
43 6 53 5 9 5 17 1 17 -9 0 -8 1882 1 1905 3 8 2 15 -2 15 -9 0 -7 249 3 310
7 51 53 173 67 178 4 2 8 10 8 18 0 8 5 14 10 14 6 0 10 5 10 10 0 6 22 32 48
58 58 56 92 84 92 75 0 -3 9 2 20 12 11 10 20 14 20 9 0 -5 4 -4 8 2 8 14 200
77 298 98 124 28 153 32 254 42 41 3 76 7 77 8 7 6 544 -2 583 -8z"/>
<path d="M12339 14946 c-2 -2 -42 -6 -88 -10 -46 -3 -127 -13 -180 -22 -53 -9
-105 -17 -116 -19 -11 -2 -53 -11 -94 -20 -40 -9 -78 -18 -85 -20 -6 -1 -18
-4 -26 -7 -8 -3 -76 -25 -150 -48 -178 -56 -309 -108 -450 -179 -130 -65 -159
-81 -177 -98 -7 -6 -22 -15 -33 -18 -11 -3 -20 -11 -20 -16 0 -5 -5 -9 -11 -9
-6 0 -16 -6 -24 -12 -7 -7 -30 -26 -50 -43 -117 -94 -244 -253 -310 -390 -11
-22 -23 -42 -26 -45 -7 -6 -23 -53 -20 -59 2 -2 -1 -7 -6 -10 -25 -17 -96
-277 -109 -402 -13 -127 -8 -2474 6 -2474 1 0 3 -13 5 -30 3 -35 11 -74 27
-130 14 -49 13 -46 22 -70 4 -11 13 -33 19 -50 15 -43 87 -189 96 -195 5 -3
14 -15 20 -28 26 -49 201 -244 201 -225 0 4 5 1 10 -8 11 -18 153 -119 168
-119 6 0 12 -3 14 -7 7 -18 294 -145 352 -157 12 -3 37 -10 56 -16 19 -7 44
-13 55 -16 11 -2 53 -13 94 -24 79 -22 203 -51 236 -55 11 -1 31 -5 45 -9 14
-3 41 -8 60 -10 19 -3 35 -5 35 -6 0 -1 11 -3 25 -5 27 -3 109 -14 150 -20
267 -40 961 -51 1260 -20 19 2 73 6 120 10 47 3 96 8 110 10 14 2 52 6 86 10
33 3 71 7 85 10 13 2 44 6 69 9 25 3 56 8 70 11 14 3 45 8 70 11 68 8 121 17
180 29 13 2 40 7 60 10 50 7 69 11 115 23 22 6 56 13 75 16 19 3 87 19 150 36
143 38 129 34 230 64 159 48 160 48 161 70 1 27 1 2514 0 2543 l-1 21 -975 0
-975 0 -1 -371 c-1 -376 -1 -398 8 -407 2 -3 183 -5 401 -5 l397 0 0 -581 0
-581 -133 -32 c-73 -18 -137 -29 -142 -26 -6 3 -10 2 -10 -3 0 -5 -6 -9 -12
-9 -7 0 -35 -3 -63 -7 -27 -4 -63 -9 -80 -11 -16 -2 -53 -6 -81 -10 -97 -12
-209 -16 -389 -16 -170 0 -237 3 -330 17 -22 3 -53 7 -70 9 -38 4 -102 14
-135 21 -14 3 -34 8 -45 10 -49 10 -64 13 -124 29 -36 9 -85 24 -110 32 -25 9
-51 16 -58 17 -7 1 -16 5 -19 9 -4 4 -14 7 -23 7 -31 0 -154 71 -203 118 -81
76 -148 194 -164 292 -10 62 -11 2139 -1 2220 4 36 14 82 22 103 8 20 12 37 9
37 -4 0 -1 7 6 15 7 8 9 15 4 15 -5 0 -4 4 2 8 6 4 20 25 32 47 19 37 94 132
117 147 5 3 21 16 35 28 29 25 146 95 184 110 14 5 38 15 54 22 33 13 26 11
138 42 51 13 108 27 128 30 20 3 53 9 74 12 20 4 48 8 62 9 14 2 25 4 25 5 0
3 178 13 267 14 54 1 98 5 98 9 0 5 5 5 11 1 10 -6 128 -9 154 -4 6 1 14 1 20
0 5 -1 88 -3 185 -6 188 -5 345 -11 345 -14 0 -1 27 -3 60 -5 78 -4 179 -13
285 -25 47 -6 105 -12 130 -15 25 -3 61 -7 80 -10 19 -3 52 -7 73 -10 20 -3
54 -8 75 -11 20 -3 46 -7 57 -9 11 -2 34 -6 50 -8 66 -11 121 -20 140 -23 11
-1 20 -3 20 -4 0 -1 14 -4 30 -5 17 -2 39 -6 50 -8 75 -19 235 -50 259 -51
l28 -1 2 447 c1 392 -1 448 -14 449 -8 0 -24 3 -35 5 -11 3 -31 6 -45 8 -14 2
-56 8 -95 14 -38 6 -90 14 -115 17 -25 3 -54 7 -65 9 -11 2 -47 7 -80 11 -33
3 -76 9 -95 11 -19 3 -55 7 -80 9 -25 2 -65 6 -90 9 -25 3 -72 8 -105 11 -33
3 -83 8 -112 11 -29 3 -80 8 -115 9 -35 2 -106 6 -158 10 -52 3 -135 8 -185
11 -108 7 -1140 16 -1146 10z"/>
<path d="M17788 14945 c-2 -2 -58 -7 -123 -10 -66 -4 -133 -8 -150 -10 -16 -2
-52 -6 -80 -10 -27 -3 -61 -8 -74 -10 -13 -2 -45 -8 -70 -12 -51 -8 -60 -10
-63 -12 -2 -2 -19 -4 -38 -7 -19 -2 -85 -18 -145 -34 -61 -17 -117 -32 -125
-34 -33 -9 -186 -58 -205 -66 -11 -5 -49 -22 -85 -38 -36 -16 -67 -28 -70 -28
-10 0 -167 -89 -225 -127 -137 -92 -234 -187 -340 -334 -25 -35 -45 -65 -45
-69 0 -3 -8 -18 -19 -32 -33 -47 -114 -249 -125 -312 -2 -14 -9 -43 -15 -65
-20 -76 -24 -151 -25 -520 -1 -203 -5 -375 -9 -382 -4 -6 -4 -14 1 -17 9 -6 9
-206 -1 -222 -3 -6 -3 -14 1 -18 9 -10 9 -747 -1 -753 -4 -2 -4 -10 0 -16 4
-6 8 -169 9 -362 2 -192 5 -366 8 -385 5 -36 13 -75 16 -75 1 0 3 -14 5 -30 7
-47 52 -181 87 -254 32 -65 86 -161 98 -171 3 -3 17 -21 30 -40 41 -61 195
-204 282 -263 47 -31 90 -57 96 -57 6 0 12 -4 14 -8 4 -9 173 -85 185 -83 2 0
23 -8 48 -19 25 -11 48 -19 50 -19 3 0 40 -11 83 -24 98 -31 297 -85 341 -92
19 -3 37 -7 40 -9 3 -2 22 -7 41 -10 19 -3 60 -10 90 -16 58 -12 83 -16 165
-24 28 -3 68 -8 90 -11 144 -19 346 -29 610 -29 204 0 276 3 455 18 62 6 171
20 240 32 14 3 39 6 55 9 17 2 30 4 30 5 0 1 11 3 25 6 20 3 116 23 140 29 3
1 21 5 40 9 210 46 541 159 685 233 116 61 272 177 344 257 14 15 36 39 48 52
20 22 91 122 120 169 27 44 99 205 102 228 0 4 7 31 15 60 9 28 19 66 23 82 4
17 9 606 10 1309 3 1141 2 1289 -13 1370 -16 95 -18 102 -26 126 -19 57 -28
89 -28 103 0 9 -5 17 -10 17 -6 0 -9 3 -8 8 3 15 -42 113 -92 197 -125 213
-307 377 -558 503 -56 28 -103 51 -105 51 -2 0 -28 10 -107 41 -89 36 -265 89
-349 105 -9 2 -16 4 -16 5 0 1 -9 3 -20 4 -11 2 -36 7 -55 11 -38 9 -44 10
-105 19 -50 8 -80 14 -80 16 0 1 -16 4 -35 6 -19 2 -51 5 -70 8 -35 4 -98 11
-220 22 -75 7 -786 15 -792 9z m605 -850 c48 -3 97 -8 110 -11 12 -3 42 -7 67
-10 25 -2 63 -9 85 -15 22 -6 51 -13 64 -16 14 -2 28 -6 33 -9 5 -3 21 -8 36
-10 15 -3 52 -14 82 -25 30 -12 64 -23 74 -25 11 -2 24 -8 30 -14 5 -5 18 -10
28 -10 10 0 18 -4 18 -10 0 -5 7 -10 15 -10 8 0 15 -4 15 -10 0 -5 6 -10 14
-10 34 0 176 -182 191 -247 3 -10 11 -43 18 -73 10 -44 13 -290 11 -1225 -1
-643 -4 -1186 -7 -1205 -8 -40 -15 -73 -17 -80 -1 -3 -2 -8 -1 -12 0 -5 -4 -8
-10 -8 -5 0 -8 -3 -6 -7 13 -21 -125 -203 -154 -203 -4 0 -14 -6 -21 -12 -35
-33 -205 -94 -309 -112 -51 -9 -91 -16 -119 -21 -30 -6 -104 -15 -180 -21
-145 -12 -682 -5 -776 11 -19 3 -51 8 -71 11 -67 10 -77 12 -165 33 -188 44
-282 91 -367 180 -37 38 -101 150 -107 186 -1 6 -5 26 -8 45 -12 62 -13 150
-2 150 8 0 8 3 1 8 -12 8 -14 426 -3 438 4 4 4 12 0 18 -11 18 -9 680 3 688 6
5 6 8 0 8 -12 0 -13 79 -2 98 5 6 5 12 0 12 -4 0 -8 65 -8 145 0 91 4 145 10
145 6 0 6 3 0 8 -15 10 -15 534 0 544 7 5 7 8 0 8 -7 0 -10 27 -8 73 3 69 8
122 12 122 2 0 5 11 7 25 3 13 9 29 14 34 6 6 10 16 10 23 0 42 135 204 181
218 11 4 19 10 19 15 0 5 21 16 48 26 26 10 52 20 57 24 11 7 214 66 255 74
14 3 36 7 50 11 14 3 48 8 75 11 28 4 53 8 56 10 4 2 53 7 110 10 57 3 105 7
106 8 5 4 361 -3 436 -9z"/>
<path d="M453 14867 c-3 -5 -7 -4771 -3 -4943 0 -18 7 -23 41 -26 22 -2 42 -2
45 1 2 3 21 4 42 3 64 -3 107 -4 115 -2 19 4 76 3 90 -3 9 -3 19 -2 22 3 4 6
13 7 24 1 9 -5 23 -6 30 -1 8 4 26 4 42 0 15 -5 30 -6 33 -2 8 7 69 7 89 -1 9
-3 19 -2 22 3 4 6 13 7 24 1 9 -5 23 -6 30 -1 8 4 26 4 42 0 15 -5 30 -6 33
-2 4 3 23 5 44 4 64 -3 107 -4 115 -2 19 4 76 3 90 -3 9 -3 19 -2 22 3 4 6 13
7 24 1 9 -5 23 -6 30 -1 8 4 26 4 42 0 15 -5 30 -6 33 -2 8 7 69 7 89 -1 9 -3
19 -2 22 3 4 6 13 7 24 1 9 -5 23 -6 30 -1 8 4 26 4 42 0 15 -5 30 -6 33 -2 4
3 23 5 44 4 64 -3 107 -4 115 -2 19 4 76 3 90 -3 9 -3 19 -2 22 3 4 6 13 7 24
1 9 -5 23 -6 30 -1 8 4 26 4 42 0 15 -5 30 -6 33 -2 8 7 69 7 89 -1 9 -3 19
-2 22 3 4 6 13 7 24 1 9 -5 23 -6 30 -1 8 4 26 4 42 0 15 -5 30 -6 33 -2 4 3
23 5 44 4 64 -3 107 -4 115 -2 19 4 76 3 90 -3 9 -3 19 -2 22 3 4 6 13 7 24 1
9 -5 23 -6 30 -1 8 4 26 4 42 0 15 -5 30 -6 33 -2 8 7 69 7 89 -1 9 -3 19 -2
22 3 4 6 13 7 24 1 9 -5 23 -6 30 -1 8 4 26 4 42 0 15 -5 30 -6 33 -2 4 3 23
5 44 4 64 -3 107 -4 115 -2 19 4 76 3 90 -3 9 -3 19 -2 22 3 4 6 13 7 24 1 9
-5 23 -6 30 -1 8 4 26 4 42 0 15 -5 30 -6 33 -2 8 7 69 7 89 -1 9 -3 19 -2 22
3 4 6 13 7 24 1 9 -5 23 -6 30 -1 8 4 26 4 42 0 15 -5 30 -6 33 -2 4 3 23 5
44 4 64 -3 107 -4 115 -2 19 4 76 3 90 -3 9 -3 19 -2 22 3 4 6 13 7 24 1 10
-6 23 -6 31 -1 8 5 17 7 20 5 4 -2 7 187 7 420 l0 425 -1221 2 -1221 3 0 2057
c0 1822 -2 2058 -15 2059 -82 6 -1173 2 -1177 -4z"/>
<path d="M10809 7278 c-3 -30 4 -63 13 -69 5 -3 9 -9 9 -13 -3 -17 2 -25 37
-62 75 -80 183 -106 302 -74 50 14 130 67 130 87 0 7 4 13 9 13 10 0 27 46 36
97 l5 32 -46 -2 c-46 -2 -47 -3 -59 -45 -23 -75 -83 -114 -174 -114 -64 1
-141 39 -141 71 0 6 -4 11 -9 11 -5 0 -12 18 -16 40 -7 40 -7 40 -51 40 -28 0
-44 -5 -45 -12z"/>
<path d="M315 6925 c-82 -26 -120 -48 -176 -104 -60 -61 -90 -117 -120 -221
-24 -87 -21 -335 5 -392 9 -21 17 -41 17 -45 3 -20 21 -56 46 -95 70 -107 185
-172 315 -177 61 -3 175 16 184 30 3 5 12 9 21 9 20 0 112 66 138 99 34 44 63
105 70 149 5 36 3 42 -12 43 -10 0 -33 1 -52 2 -18 1 -35 -2 -36 -8 -20 -78
-31 -99 -68 -138 -47 -50 -71 -65 -137 -82 -129 -34 -260 15 -329 123 -89 141
-95 407 -13 567 34 67 102 129 152 139 3 1 11 5 18 10 19 12 145 15 160 3 6
-5 12 -7 12 -4 0 3 17 -2 38 -11 44 -20 102 -66 102 -81 0 -6 4 -11 9 -11 12
0 54 -99 54 -127 0 -21 4 -23 54 -23 l55 0 -7 47 c-9 60 -45 142 -81 183 -25
28 -110 93 -124 96 -3 0 -30 8 -60 17 -64 20 -176 20 -235 2z"/>
<path d="M2570 6921 c-54 -17 -93 -35 -114 -52 -6 -5 -31 -25 -54 -44 -24 -19
-41 -35 -37 -35 3 0 -5 -15 -19 -33 -21 -28 -74 -132 -67 -132 1 0 -3 -13 -9
-29 -20 -53 -28 -196 -16 -289 19 -153 125 -314 240 -366 79 -37 98 -42 171
-48 210 -17 386 101 453 302 54 161 44 355 -25 501 -14 30 -30 54 -35 54 -5 0
-7 4 -4 9 7 11 -94 105 -138 129 -96 52 -245 66 -346 33z m206 -85 c12 -2 41
-15 64 -28 23 -13 50 -27 60 -32 9 -5 26 -22 36 -37 10 -15 23 -25 29 -22 5 4
7 3 3 -2 -4 -4 1 -19 12 -32 23 -30 52 -123 55 -181 1 -24 5 -45 8 -48 3 -4 2
-17 -3 -30 -6 -16 -6 -24 1 -24 6 0 8 -4 4 -10 -3 -5 -7 -31 -9 -59 -3 -45
-20 -112 -35 -136 -3 -5 -6 -13 -6 -16 0 -21 -71 -110 -105 -134 -89 -62 -213
-78 -302 -41 -21 9 -41 17 -45 18 -10 3 -50 37 -80 68 -26 28 -80 131 -89 170
-20 95 -20 228 -1 310 13 51 54 131 74 143 7 4 13 13 13 19 0 6 15 23 33 39
29 26 52 37 126 66 24 9 115 9 157 -1z"/>
<path d="M3818 6934 c-2 -1 -15 -5 -29 -7 -47 -9 -125 -55 -162 -96 -20 -23
-39 -41 -41 -41 -2 0 -5 28 -5 62 0 66 -6 75 -48 72 -15 -1 -35 -3 -43 -3 -13
-1 -15 -84 -13 -689 1 -378 2 -693 2 -699 1 -9 19 -13 56 -13 l55 0 0 257 0
258 24 -25 c50 -52 113 -91 172 -106 51 -13 187 -12 222 2 17 7 32 11 32 8 0
-3 13 4 29 15 16 12 32 21 36 21 13 0 89 87 107 122 16 30 38 82 43 101 2 4 3
8 5 10 1 1 3 9 5 17 42 179 28 383 -36 520 -22 47 -74 119 -96 133 -6 4 -18
13 -25 20 -14 13 -83 48 -108 54 -20 5 -178 12 -182 7z m132 -100 c14 -3 25
-4 25 -2 0 1 18 -8 40 -22 40 -25 75 -55 75 -66 0 -3 6 -12 14 -19 17 -17 62
-136 70 -186 12 -67 8 -204 -8 -269 -44 -189 -127 -271 -281 -276 -87 -3 -155
21 -218 77 -76 66 -77 70 -77 341 0 269 -1 266 77 346 69 71 179 101 283 76z"/>
<path d="M14267 6934 c-1 -1 -24 -4 -52 -5 -153 -9 -315 -137 -327 -259 l-3
-35 58 -1 c49 -1 57 1 57 17 0 11 -1 21 -2 23 -2 2 4 12 13 22 9 11 19 26 22
35 3 9 21 29 40 43 112 86 305 82 400 -8 15 -14 25 -26 22 -26 -4 0 1 -7 9
-16 9 -8 14 -20 11 -25 -4 -5 -2 -9 4 -9 5 0 8 -9 6 -20 -2 -11 -1 -20 3 -20
7 0 6 -149 -1 -157 -3 -2 -78 -5 -168 -7 -90 -1 -177 -6 -194 -9 -42 -10 -159
-59 -163 -69 -2 -4 -8 -8 -14 -8 -11 0 -98 -89 -96 -99 1 -3 -4 -19 -11 -35
-13 -33 -18 -126 -9 -166 42 -177 254 -264 464 -190 29 10 55 15 58 12 3 -3 6
0 6 6 0 6 8 13 19 17 10 3 39 26 64 51 34 33 46 40 46 27 -1 -10 2 -31 5 -48
16 -77 16 -77 41 -72 14 2 25 0 25 -5 0 -5 7 -5 16 0 9 5 25 7 35 5 22 -6 23
-3 6 62 -8 28 -13 87 -13 132 1 46 -2 83 -5 83 -6 0 -2 67 5 87 3 7 2 13 -3
13 -9 0 -8 30 1 45 3 6 2 19 -2 30 -4 11 -4 34 0 51 4 18 4 38 -1 45 -4 7 -3
21 2 31 5 10 6 18 2 18 -10 0 -9 83 1 99 4 6 4 11 -1 11 -4 0 -9 17 -9 38 -2
55 -11 81 -42 131 -51 83 -159 144 -270 153 -29 3 -53 3 -55 2z m264 -550 c4
-137 -1 -213 -16 -228 -8 -8 -15 -19 -15 -24 0 -18 -77 -79 -134 -106 -40 -19
-80 -29 -134 -33 -71 -5 -84 -3 -135 22 -58 27 -104 74 -113 116 -14 70 1 137
43 185 19 21 112 70 153 80 14 4 81 8 150 11 69 2 134 5 145 6 37 5 55 -5 56
-29z"/>
<path d="M16215 6925 c-139 -26 -278 -133 -292 -225 -10 -66 -11 -64 37 -66
57 -2 70 3 70 28 0 23 25 73 48 96 24 23 96 62 130 70 15 3 59 6 98 6 109 0
175 -34 220 -110 23 -39 27 -60 30 -141 3 -79 2 -94 -10 -90 -8 3 -16 4 -19 1
-2 -3 -76 -6 -163 -8 -164 -4 -171 -4 -239 -29 -144 -52 -220 -135 -232 -253
-22 -214 163 -356 407 -312 73 13 165 58 218 107 l42 39 1 -26 c1 -31 8 -82
13 -98 3 -7 30 -12 65 -13 l60 -1 -5 27 c-3 16 -9 44 -14 63 -5 19 -9 177 -10
352 -1 346 -5 380 -59 455 -78 107 -234 158 -396 128z m336 -537 c4 -136 -1
-209 -15 -236 -17 -34 -86 -110 -86 -96 0 5 -5 1 -11 -9 -6 -9 -14 -15 -20
-12 -5 4 -9 2 -9 -3 0 -17 -114 -46 -181 -47 -74 0 -164 34 -175 67 -3 10 -9
18 -13 18 -8 0 -36 56 -36 72 0 3 -3 9 -6 12 -10 10 1 88 16 115 34 61 71 87
169 121 39 13 89 18 209 19 l157 2 1 -23z"/>
<path d="M1151 6908 c-4 -13 -6 -885 -2 -980 1 -15 11 -18 56 -18 l55 0 2 457
3 458 270 0 269 0 0 -458 0 -457 55 0 56 0 0 499 c0 275 -4 503 -7 507 -4 4
-175 7 -379 8 -340 1 -372 0 -378 -16z"/>
<path d="M4563 6922 c-32 -3 -33 -5 -33 -50 l0 -47 170 0 c94 1 174 -1 178 -5
10 -7 9 -180 -1 -180 -5 0 -5 -6 0 -12 11 -19 10 -168 -2 -168 -7 0 -7 -3 0
-8 12 -9 14 -202 2 -202 -4 0 -5 -5 -1 -11 10 -17 12 -79 2 -79 -5 0 -6 -6 -1
-12 11 -19 10 -62 -2 -70 -7 -5 -7 -8 0 -8 7 0 10 -30 9 -80 l-1 -80 56 0 56
0 0 458 0 457 182 0 c101 0 183 2 184 5 1 3 2 24 3 48 2 36 -1 42 -19 42 -110
3 -758 4 -782 2z"/>
<path d="M5678 6922 l-28 -3 0 -505 0 -504 54 0 c53 0 55 1 90 49 20 27 36 53
36 59 0 6 8 15 18 21 9 5 15 11 12 13 -2 2 15 31 38 65 23 34 42 67 42 72 0 6
3 11 8 11 4 0 16 16 26 35 11 19 23 35 28 35 4 0 8 5 8 10 0 10 64 112 85 136
6 7 28 42 50 78 22 36 43 66 48 66 4 0 7 5 7 10 0 10 97 160 103 160 2 0 3
-185 3 -410 -1 -321 2 -410 12 -411 16 -1 57 -1 81 0 18 1 20 8 18 96 -1 52 2
95 6 95 5 0 5 5 1 11 -9 16 -11 229 -1 229 5 0 5 5 1 12 -10 16 -11 68 -1 68
5 0 5 5 1 11 -9 16 -11 229 -1 229 5 0 5 5 1 11 -4 7 -7 65 -6 130 l0 118 -56
-2 -57 -2 -82 -125 c-45 -69 -89 -134 -98 -145 -8 -10 -15 -25 -15 -32 0 -7
-3 -13 -8 -13 -4 0 -16 -16 -26 -35 -11 -19 -23 -35 -28 -35 -4 0 -8 -4 -8
-10 0 -5 -20 -39 -45 -76 -25 -36 -45 -67 -45 -70 0 -2 -16 -26 -35 -53 -19
-26 -35 -53 -35 -59 0 -5 -7 -12 -15 -16 -8 -3 -15 -10 -15 -16 0 -6 -19 -39
-42 -72 -35 -53 -42 -59 -48 -42 -4 10 -4 26 0 33 5 8 4 25 -1 38 -5 13 -4 25
1 28 5 3 5 18 0 35 -5 17 -5 30 0 30 5 0 5 13 0 30 -5 17 -6 30 -2 30 4 0 7
59 7 130 0 72 -4 130 -8 130 -5 0 -5 4 -2 10 5 8 6 35 5 140 0 8 0 49 1 90 l2
75 -29 5 c-16 3 -41 4 -56 2z"/>
<path d="M6849 6920 l-22 -6 0 -487 c1 -268 2 -496 2 -507 1 -19 7 -20 124
-18 68 1 128 -2 135 -6 7 -4 12 -4 12 1 0 4 64 8 143 8 132 1 147 3 215 29 39
16 72 33 72 38 0 4 5 8 11 8 14 0 45 36 71 85 28 51 31 163 6 215 -21 43 -83
110 -103 110 -8 0 -15 5 -15 10 0 6 -3 9 -7 8 -5 -1 -21 4 -38 11 l-29 12 39
19 c48 22 89 60 112 103 21 41 23 185 2 198 -8 5 -10 9 -6 9 10 0 -30 59 -53
78 -39 32 -136 68 -210 79 -49 7 -434 9 -461 3z m481 -104 c57 -16 116 -49
134 -73 24 -32 32 -109 17 -155 -15 -47 -47 -75 -110 -98 -45 -16 -77 -19
-239 -17 l-186 2 -4 176 -3 175 183 -1 c101 -1 194 -5 208 -9z m40 -450 c19
-4 53 -20 75 -35 99 -67 109 -187 24 -272 -10 -10 -19 -16 -19 -13 0 4 -6 2
-12 -3 -40 -31 -106 -40 -298 -39 l-194 1 -1 175 c-1 96 0 180 2 186 4 12 365
12 423 0z"/>
<path d="M8013 6922 l-23 -3 0 -504 0 -503 28 -3 c15 -2 39 -3 55 -1 l27 3 0
230 c0 211 1 229 18 230 9 0 133 1 275 2 l257 2 1 -35 c0 -19 0 -124 0 -233
l1 -198 56 3 57 3 0 499 c0 326 -3 500 -10 502 -5 2 -29 5 -52 7 -33 3 -44 0
-47 -12 -3 -9 -5 -95 -5 -191 0 -96 0 -192 0 -212 l-1 -38 -270 0 c-209 0
-270 3 -271 13 0 6 -2 104 -4 217 -2 113 -4 208 -4 211 -1 8 -58 15 -88 11z"/>
<path d="M9203 6923 c-26 -3 -33 -9 -34 -26 -4 -101 -1 -978 4 -983 6 -6 451
-6 482 0 11 2 32 9 46 14 15 6 29 9 32 6 2 -2 10 2 17 11 7 8 19 15 26 15 15
0 44 21 83 63 48 52 61 67 56 67 -3 0 2 17 10 37 17 41 22 130 11 183 -19 83
-81 161 -156 197 -81 38 -127 45 -314 45 -99 0 -183 4 -186 8 -3 5 -4 85 -4
179 2 157 0 172 -16 181 -10 6 -20 9 -22 8 -2 0 -18 -3 -35 -5z m405 -474 c58
-4 155 -51 182 -89 87 -122 34 -286 -107 -334 -32 -11 -88 -14 -225 -13 l-181
2 -1 208 c-1 115 1 213 4 217 9 14 164 18 328 9z"/>
<path d="M10220 6922 l-55 -3 3 -505 2 -505 56 3 56 3 0 503 c0 277 -2 504 -4
505 -1 1 -28 1 -58 -1z"/>
<path d="M10701 6920 c-4 -3 -8 -231 -8 -507 l0 -501 37 -4 c72 -7 80 0 167
132 45 69 87 132 93 140 6 8 58 87 115 175 57 88 108 165 112 170 5 6 30 44
56 85 25 41 55 86 66 99 l19 24 0 -86 c0 -46 3 -90 6 -96 4 -6 4 -11 -1 -11
-4 0 -7 -17 -6 -37 3 -65 3 -133 2 -266 -1 -70 1 -130 4 -133 3 -3 3 -12 1
-19 -7 -18 -10 -105 -4 -105 4 0 4 -15 2 -34 -4 -32 -2 -34 30 -37 75 -9 78
-6 78 79 2 664 2 924 -2 928 -9 8 -112 7 -115 -2 -3 -7 -80 -126 -133 -204 -6
-8 -33 -51 -62 -95 -29 -44 -56 -82 -60 -83 -4 -2 -6 -8 -2 -13 3 -5 0 -9 -5
-9 -6 0 -11 -6 -11 -14 0 -8 -3 -16 -8 -18 -4 -1 -27 -34 -52 -73 -25 -38 -48
-71 -52 -73 -5 -2 -8 -10 -8 -18 0 -8 -7 -17 -15 -20 -8 -4 -13 -9 -10 -14 2
-4 -5 -16 -15 -28 -11 -12 -20 -24 -20 -27 0 -6 -41 -67 -51 -75 -4 -3 -9 -15
-13 -28 -4 -12 -11 -20 -16 -17 -9 5 -10 80 -13 532 -2 262 -3 283 -19 284
-51 4 -81 3 -87 -1z"/>
<path d="M12438 6919 c-6 -4 -10 -194 -10 -505 l0 -499 56 -3 56 -3 0 73 c2
222 2 464 0 473 -1 6 -2 15 0 20 1 6 1 71 1 145 l0 135 20 -40 c12 -22 22 -46
23 -53 1 -7 8 -18 14 -24 7 -7 12 -17 12 -23 0 -5 18 -47 40 -93 22 -45 40
-87 40 -92 0 -6 5 -10 12 -10 6 0 8 -3 5 -6 -4 -4 2 -23 13 -43 10 -20 35 -70
53 -111 31 -67 75 -163 140 -302 21 -45 24 -48 63 -48 l41 0 36 78 c35 77 75
162 191 407 34 72 82 173 106 227 25 53 47 94 50 91 3 -2 5 -183 5 -401 l0
-397 53 -5 c31 -3 57 -1 61 5 5 5 9 234 10 508 l0 497 -29 1 c-114 4 -112 5
-145 -69 -16 -37 -57 -125 -91 -197 -86 -183 -108 -229 -109 -235 0 -3 -20
-45 -44 -95 -83 -172 -111 -234 -111 -245 0 -31 -23 5 -85 133 -135 280 -213
444 -275 575 -35 72 -68 132 -74 133 -58 4 -120 3 -128 -2z"/>
<path d="M15054 6918 c-8 -12 -7 -998 0 -1005 6 -6 97 -6 103 1 2 2 5 208 6
457 l2 454 253 -1 252 0 1 31 c1 33 -1 58 -6 63 -7 8 -607 7 -611 0z"/>
<path d="M17255 6911 c-27 -8 -52 -18 -55 -22 -3 -3 -15 -9 -27 -13 -31 -10
-107 -84 -127 -124 -23 -46 -32 -112 -14 -113 28 -3 91 1 95 5 5 4 11 32 12
53 2 21 60 81 101 102 53 27 82 34 162 33 153 0 246 -71 245 -188 0 -27 -5
-58 -11 -69 -5 -11 -10 -23 -11 -27 -1 -16 -62 -57 -103 -69 -24 -7 -97 -13
-161 -13 l-116 -1 -1 -50 -2 -50 127 1 c69 1 131 -2 136 -6 6 -5 15 -9 20 -9
108 -13 166 -103 140 -219 -14 -62 -40 -93 -104 -123 -57 -27 -87 -33 -174
-31 -116 2 -226 71 -261 164 l-17 43 -52 0 -52 0 2 -39 c3 -44 31 -108 66
-147 25 -29 115 -81 162 -94 53 -14 175 -32 180 -26 3 3 20 6 38 6 18 1 59 10
92 20 33 10 63 18 68 17 4 -1 7 3 7 8 0 6 6 10 13 10 26 0 96 71 121 123 43
91 24 239 -37 282 -12 8 -17 15 -12 15 6 0 -10 11 -34 25 -23 14 -49 25 -57
25 -22 0 -16 18 8 26 12 3 28 12 35 20 7 7 24 21 37 31 29 24 59 79 62 118 1
17 3 35 4 40 1 6 1 12 0 15 -1 3 -3 19 -4 35 -9 104 -100 188 -244 225 -58 15
-196 10 -257 -9z"/>
<path d="M18168 6923 c-16 -2 -29 -7 -29 -11 -4 -23 -3 -985 1 -992 6 -9 31
-13 76 -11 30 1 41 16 207 269 318 483 347 527 350 537 15 39 20 -55 21 -410
l0 -406 56 3 55 3 0 503 0 502 -56 0 -57 0 -49 -72 c-26 -40 -50 -77 -52 -82
-3 -8 -123 -191 -139 -211 -4 -5 -27 -41 -52 -80 -24 -38 -47 -72 -50 -75 -3
-3 -11 -17 -19 -32 -8 -15 -22 -37 -33 -47 -10 -11 -18 -23 -18 -26 0 -5 -115
-181 -129 -197 -3 -4 -6 182 -5 412 1 333 -2 420 -12 420 -7 0 -18 2 -26 3 -7
2 -25 2 -40 0z"/>
<path d="M19327 6922 c-16 -3 -17 -39 -17 -508 l0 -504 38 -1 c38 -1 65 1 70
6 2 1 3 104 2 229 0 209 1 226 17 227 136 6 516 2 521 -6 4 -5 7 -109 8 -230
1 -121 2 -222 3 -225 0 -3 24 -5 51 -5 28 0 51 2 51 5 1 3 3 15 4 26 1 12 6
27 10 34 6 9 4 11 -4 5 -10 -6 -11 -3 -2 14 7 11 8 21 4 21 -4 0 -8 20 -8 45
0 25 3 45 8 45 4 0 5 5 1 12 -10 16 -11 108 -2 114 4 3 4 15 0 27 -6 18 -8
223 -2 317 0 14 0 42 -2 63 -2 20 0 37 5 37 4 0 5 5 1 12 -11 17 -11 58 -1 58
4 0 5 5 1 12 -10 16 -11 108 -2 114 9 6 -1 36 -17 49 -7 6 -32 9 -57 7 l-44
-4 1 -229 0 -229 -272 0 -273 0 2 224 c1 124 -1 228 -4 231 -8 8 -65 12 -91 7z"/>
</g>
</svg>
