<svg xmlns="http://www.w3.org/2000/svg" viewBox="0 0 128.33 59.07" xmlns:xlink='http://www.w3.org/1999/xlink' id='svg'><path d="M127 27.55a8.37 8.37 0 01-3.77 2.83 25.73 25.73 0 01-9.69 1.73 32 32 0 01-4.78-.33 25.91 25.91 0 01-4.54-1.16 8 8 0 01-4-2.8 7.75 7.75 0 01-1.44-4.73V9.46a8.22 8.22 0 011-4.13 8.07 8.07 0 012.67-2.88A14.13 14.13 0 01106 .91a20.12 20.12 0 013.93-.77c1.13-.09 2.32-.14 3.57-.14 1.47 0 2.75.06 3.84.17a24.36 24.36 0 013.66.69 14.69 14.69 0 013.8 1.64 7.77 7.77 0 012.49 2.68 8.19 8.19 0 011.06 4.28v13.63a7.36 7.36 0 01-1.35 4.46zm-6.16-18.14a3.28 3.28 0 00-1.78-3.15 12.41 12.41 0 00-5.52-.93 12.66 12.66 0 00-5.52.91 3.26 3.26 0 00-1.77 3.17v13.68a3.09 3.09 0 00.62 2 3.43 3.43 0 001.83 1.13 13.36 13.36 0 002.23.45 24.74 24.74 0 002.66.12 24.81 24.81 0 002.67-.12 13.56 13.56 0 002.23-.45 3.27 3.27 0 001.75-1.13 3.2 3.2 0 00.6-2zM95 56.63h-.71v-6.34h3.91v.61H95zM80.42 32.11a41.64 41.64 0 01-4.75-.24 26.29 26.29 0 01-4.08-.81A11.34 11.34 0 0168 29.5a7.6 7.6 0 01-2.26-2.57 8.35 8.35 0 01-.86-3.84v-13a9.26 9.26 0 011-4.25 7.82 7.82 0 012.59-3 16.25 16.25 0 013.67-1.73 20.77 20.77 0 014.2-1A38.36 38.36 0 0180.52 0a77.15 77.15 0 0112.67 1v5.67a54.49 54.49 0 00-12.67-1.34q-8.11 0-8.11 4.7v12.53a3.33 3.33 0 002.18 3.26 17.27 17.27 0 006.6 1 19.51 19.51 0 005-.72v-7.28h-5.05v-4.9h12.24V30.1a34.71 34.71 0 01-6.12 1.44 45.42 45.42 0 01-6.84.57zm-16.7 18.18h.7v6.34h-.7zm-3.78 6.34h-2.5v-6.34h.69v2.31H60a2.79 2.79 0 011.23.25 1.88 1.88 0 01.81.71 2 2 0 01.27 1 1.87 1.87 0 01-.63 1.48 2.48 2.48 0 01-1.74.59zm1.21-3a1.69 1.69 0 00-1.15-.4h-1.87V56H60a1.77 1.77 0 001.19-.38 1.35 1.35 0 00.43-1 1.33 1.33 0 00-.47-1.03zm-6.74-23.25a25.75 25.75 0 01-9.7 1.73 31.9 31.9 0 01-4.77-.33 25.91 25.91 0 01-4.54-1.16 8 8 0 01-4-2.8 7.75 7.75 0 01-1.4-4.73V9.46a8.22 8.22 0 011-4.13 8 8 0 012.66-2.88A14.29 14.29 0 0137.22.91a20.07 20.07 0 013.94-.77C42.28.05 43.46 0 44.71 0c1.47 0 2.75.06 3.84.17a24.24 24.24 0 013.65.69A14.46 14.46 0 0156 2.5a7.8 7.8 0 012.5 2.68 8.28 8.28 0 011 4.28v13.63a7.36 7.36 0 01-1.36 4.46 8.43 8.43 0 01-3.73 2.83zm-2.35-21a3.3 3.3 0 00-1.78-3.15 12.41 12.41 0 00-5.52-.93 12.6 12.6 0 00-5.52.91 3.27 3.27 0 00-1.78 3.17v13.71a3.1 3.1 0 00.63 2 3.4 3.4 0 001.82 1.13 13.56 13.56 0 002.23.45 24.81 24.81 0 002.67.12 24.74 24.74 0 002.66-.12 13.36 13.36 0 002.23-.45 3.3 3.3 0 001.76-1.13 3.2 3.2 0 00.6-2zM33.61 50.89H31.3v5.74h-.7v-5.74h-2.22v-.6h5.23zm-9.12 5.86a2.35 2.35 0 01-2-.92v3.24h-.7v-8.78h.65v.9a2.25 2.25 0 012-1 2.1 2.1 0 011.78.87 3.9 3.9 0 01.65 2.39v.1a3.81 3.81 0 01-.66 2.35 2.09 2.09 0 01-1.72.85zm1.22-5.26a1.63 1.63 0 00-1.39-.71 1.93 1.93 0 00-1.11.32 1.86 1.86 0 00-.71.9v3a1.89 1.89 0 00.72.83 2.08 2.08 0 001.11.29 1.6 1.6 0 001.38-.71 3.55 3.55 0 00.49-2.05 3.28 3.28 0 00-.49-1.87zM2.81.48h7.49V26.3h15.31v5.33H2.81zM4.42 50.8a2.25 2.25 0 01.72 1.63h-.67a1.71 1.71 0 00-1.77-1.66 1.74 1.74 0 00-1.47.69 3.11 3.11 0 00-.53 1.92v.2a3 3 0 00.53 1.9 1.77 1.77 0 001.48.68 1.81 1.81 0 001.22-.42 1.45 1.45 0 00.54-1.07h.67a1.93 1.93 0 01-.36 1.06 2.25 2.25 0 01-.89.75 2.65 2.65 0 01-1.18.27 2.46 2.46 0 01-2-.87A3.48 3.48 0 010 53.55v-.21a3.93 3.93 0 01.33-1.66 2.51 2.51 0 01.94-1.11 2.6 2.6 0 011.43-.4 2.42 2.42 0 011.72.63zM12 56.63h-.7V50.9H7.9v5.73h-.71v-6.34H12zm3.45-6.05a2.71 2.71 0 011.47-.41 2.63 2.63 0 012.05.89 3.45 3.45 0 01.78 2.36v.14a3.88 3.88 0 01-.35 1.66 2.65 2.65 0 01-2.47 1.53 2.63 2.63 0 01-2.05-.89 3.42 3.42 0 01-.79-2.35v-.14a3.7 3.7 0 01.36-1.65 2.65 2.65 0 011.01-1.14zm-.66 3a2.91 2.91 0 00.59 1.87 2 2 0 003.09 0 3 3 0 00.58-1.93v-.13A3.36 3.36 0 0018.8 52a2.23 2.23 0 00-.8-.9 1.93 1.93 0 00-1.11-.33 1.87 1.87 0 00-1.53.74 2.94 2.94 0 00-.6 1.92zm21.3 1.95l3.43-5.22h.7v6.34h-.7v-5.23l-3.42 5.21h-.69v-6.34h.69zM47 50.72a1.43 1.43 0 01.6 1.28 1.35 1.35 0 01-.28.84 1.62 1.62 0 01-.84.54 1.75 1.75 0 011 .54 1.41 1.41 0 01.38 1 1.52 1.52 0 01-.62 1.3 2.89 2.89 0 01-1.75.46h-2.71v-6.39h2.33a3.4 3.4 0 011.89.43zm-3.48 5.33h2a2.11 2.11 0 001.22-.31 1 1 0 00.43-.88 1 1 0 00-.43-.83 2 2 0 00-1.22-.32h-2zm0-2.92h1.77c1.11 0 1.66-.39 1.66-1.13a.91.91 0 00-.46-.84 2.66 2.66 0 00-1.34-.27h-1.67zm7.28 0h3.42v-2.84h.7v6.34h-.7v-2.9h-3.46v2.9h-.7v-6.34h.7zm18.65-3.62a1.76 1.76 0 01-1.23-.41 1.4 1.4 0 01-.51-1.1h.6a1 1 0 00.29.74 1.19 1.19 0 00.81.26 1.12 1.12 0 00.8-.27.92.92 0 00.29-.73h.6a1.39 1.39 0 01-.46 1.09 1.81 1.81 0 01-1.23.42zm-1.7 6l3.43-5.22h.7v6.34h-.7v-5.21l-3.43 5.21H67v-6.34h.69zm13.63.17l2.52-5.39h.87v6.34H84v-5.2l-2.44 5.2h-.5l-2.48-5.32v5.32h-.7v-6.34h.92zM89.79 53h1.27v-.72a1.41 1.41 0 00-.41-1.07 1.75 1.75 0 00-1.23-.39 1.92 1.92 0 00-1.21.37 1.11 1.11 0 00-.48.9H87a1.62 1.62 0 01.7-1.31 2.72 2.72 0 011.73-.56 2.43 2.43 0 011.67.54 1.88 1.88 0 01.63 1.48v3a3.63 3.63 0 00.2 1.37v.07h-.75a2.92 2.92 0 01-.14-.88 2.54 2.54 0 01-.94.74 2.92 2.92 0 01-1.21.26 2.13 2.13 0 01-1.48-.51 1.65 1.65 0 01-.53-1.29 1.67 1.67 0 01.77-1.46 3.68 3.68 0 012.14-.54zM88 55.78a1.53 1.53 0 001 .35 2.42 2.42 0 001.26-.34 2 2 0 00.8-.91v-1.39h-1.25a3 3 0 00-1.64.38 1.19 1.19 0 00-.2 1.91zM102.48 53h1.27v-.72a1.38 1.38 0 00-.42-1.07 1.74 1.74 0 00-1.22-.39 1.9 1.9 0 00-1.21.37 1.11 1.11 0 00-.48.9h-.71a1.63 1.63 0 01.71-1.31 2.67 2.67 0 011.72-.56 2.46 2.46 0 011.68.54 1.88 1.88 0 01.63 1.48v3a3.66 3.66 0 00.19 1.37v.07h-.75a3.28 3.28 0 01-.14-.88 2.39 2.39 0 01-.94.74 2.92 2.92 0 01-1.21.26 2.09 2.09 0 01-1.47-.51 1.66 1.66 0 01-.57-1.29 1.69 1.69 0 01.77-1.46 3.69 3.69 0 012.15-.54zm-1.82 2.83a1.51 1.51 0 001 .35 2.39 2.39 0 001.25-.34 2 2 0 00.81-.91v-1.44h-1.26a3.09 3.09 0 00-1.64.38 1.16 1.16 0 00-.59 1 1.13 1.13 0 00.43.91zm7.13 0a2 2 0 001.24.39 2.1 2.1 0 001.26-.34 1.08 1.08 0 00.45-.92 1.05 1.05 0 00-.41-.92 2.38 2.38 0 00-1.28-.28h-1v-.61h1.08c1 0 1.46-.4 1.46-1.12a1 1 0 00-.43-.89 2 2 0 00-1.18-.31 1.94 1.94 0 00-1.16.35 1.05 1.05 0 00-.48.88h-.7a1.58 1.58 0 01.68-1.3 2.63 2.63 0 011.66-.52 2.73 2.73 0 011.7.47 1.56 1.56 0 01.61 1.33 1.34 1.34 0 01-.28.83 1.83 1.83 0 01-.82.57 1.45 1.45 0 011.22 1.51 1.6 1.6 0 01-.66 1.35 3.27 3.27 0 01-3.52 0 1.68 1.68 0 01-.69-1.39h.7a1.14 1.14 0 00.55.86zm6.55-.26l3.42-5.22h.7v6.34h-.7v-5.27l-3.42 5.21h-.7v-6.34h.7zm7.35-2.38h3.41v-2.9h.71v6.34h-.71v-2.9h-3.41v2.9H121v-6.34h.71z" fill="#fff" fill-rule="evenodd"/></svg>